<svg width="409.8" height="131.2" version="1.1" viewBox="0 0 409.8 131.2" xmlns="http://www.w3.org/2000/svg">
 <g transform="translate(-61.87 -77.78)">
  <g>
   <path d="m78.2 144h11.34v-14.46h28.92v-11.8h-28.81v-2.776h28.81v-11.45h-40.26z"/>
   <path d="m147.1 103.7-0.2305 40.14 11.68 0.2305v-11.8l11.45 11.68 16.77-0.1152-14.11-14.58h14.46l-0.1152-25.45zm11.11 11.68h17.58v2.43l-17.58 0.1152z"/>
   <path d="m288.3 104.9h40.37v11.45h-28.81v16.89l28.46 0.1157 0.2314 11.68-40.26 0.2314z"/>
   <path d="m357.1 104.8 11.57 0.1157-0.1157 14.11 17.47 0.1157v-14.23h11.45l0.1157 40.26-11.8 0.347 0.1157-14.46-17.47-0.1157 0.1157 14.23-11.34 0.1157z"/>
   <path d="m440.5 105 11.8-0.1157-0.2314 40.49-11.92-0.2314z"/>
  </g>
  <rect x="206.6" y="92.78" width="65.25" height="65.25" ry="6.665" fill="#c3c3c3"/>
  <path d="m219.2 105 40.49-0.2314v40.84h-40.95l0.1157-11.11 29.38-0.2314 0.1157-3.47-29.38-0.1157-0.2314-11.22 29.61-0.2314v-3.47l-29.5-0.1157z"/>
  <g stroke-width=".8722" aria-label="le compte est bon">
   <path d="m134.6 185.8v-23.44h-4.535v23.44z"/>
   <path d="m140.9 175.6c0.1744-2.372 1.675-3.768 3.489-3.768 1.779 0 3.454 1.221 3.524 3.768zm11.69 2.861c0-6.803-2.791-10.22-8.059-10.22s-8.303 3.419-8.303 8.722c0 6.21 2.861 9.35 8.582 9.35 3.663 0 6.489-1.989 7.536-5.512h-4.675c-0.314 1.186-1.605 1.919-3.07 1.919-2.233 0-3.698-1.675-3.838-4.256z"/>
   <path d="m173.4 179.6c-0.1744 1.849-1.57 2.861-3.349 2.861s-3.349-1.814-3.349-5.547c0-3.733 1.57-4.954 3.489-4.954 1.709 0 3 1.047 3.244 2.826h4.57c-0.2791-4.047-3.314-6.594-7.78-6.594-4.814 0-8.024 2.686-8.024 8.826 0 6.14 3.21 9.245 7.884 9.245 4.152 0 7.396-2.686 7.884-6.663z"/>
   <path d="m187.7 182.5c-2.756 0-4.152-1.744-4.152-5.233s1.395-5.198 4.152-5.198c2.756 0 4.152 1.709 4.152 5.198s-1.395 5.233-4.152 5.233zm0 3.803c5.338 0 8.722-3.593 8.722-9.036 0-5.477-3.349-9.036-8.722-9.036-5.442 0-8.826 3.593-8.826 9.036 0 5.338 3.279 9.036 8.826 9.036z"/>
   <path d="m222.7 185.8v-11.9c0-3.21-2.407-5.721-5.861-5.721-2.163 0-3.698 0.8373-4.64 2.721-1.326-1.989-2.442-2.721-4.78-2.721-2.268 0-3.872 0.6977-5.024 2.965v-2.512h-4.256v17.16h4.535v-10.43c0-2.233 0.9419-3.349 2.756-3.349 1.989 0 2.721 0.6977 2.721 3.454v10.33h4.535v-10.26c0-2.093 1.221-3.663 2.896-3.663 1.605 0 2.686 1.465 2.686 3.524v10.4z"/>
   <path d="m232.5 182.4c-2.512 0-3.803-1.849-3.803-5.582 0-2.896 1.675-4.919 3.838-4.919 2.268 0 3.872 2.128 3.872 5.198 0 3.524-1.256 5.303-3.907 5.303zm-3.628 11.55v-10.36c1.291 1.814 2.965 2.686 5.093 2.686 4.431 0 7.047-3.663 7.047-8.861 0-5.791-3.105-9.21-7.431-9.21-2.093 0-3.698 0.8024-4.78 2.547l-0.0349-2.093h-4.361v25.29z"/>
   <path d="m252.4 179c0 2.128-0.8373 3.349-2.651 3.349-1.849 0-2.617-1.256-2.617-3.419v-7.047h9.489v-3.21h-9.489v-4.64h-4.466v15.35c0 3.698 1.989 6.908 7.012 6.908 4.849 0 6.942-3.244 6.942-6.873v-4.884h-4.221z"/>
   <path d="m262.7 175.6c0.1744-2.372 1.675-3.768 3.489-3.768 1.779 0 3.454 1.221 3.524 3.768zm11.69 2.861c0-6.803-2.791-10.22-8.059-10.22s-8.303 3.419-8.303 8.722c0 6.21 2.861 9.35 8.582 9.35 3.663 0 6.489-1.989 7.536-5.512h-4.675c-0.314 1.186-1.605 1.919-3.07 1.919-2.233 0-3.698-1.675-3.838-4.256z"/>
   <path d="m288.7 175.6c0.1744-2.372 1.675-3.768 3.489-3.768 1.779 0 3.454 1.221 3.524 3.768zm11.69 2.861c0-6.803-2.791-10.22-8.059-10.22-5.268 0-8.303 3.419-8.303 8.722 0 6.21 2.861 9.35 8.582 9.35 3.663 0 6.489-1.989 7.536-5.512h-4.675c-0.314 1.186-1.605 1.919-3.07 1.919-2.233 0-3.698-1.675-3.838-4.256z"/>
   <path d="m316.6 173.9c-0.2442-3.698-2.477-5.652-7.431-5.652-5.233 0-7.222 2.198-7.222 5.093 0 1.535 0.5582 2.861 2.163 3.872 1.221 0.7675 2.826 1.256 5.721 1.954 1.465 0.3489 2.756 0.7326 2.756 1.954 0 1.291-1.43 1.779-3.035 1.779-2.198 0-3.558-0.942-3.558-2.547h-4.675c0.0698 3.489 3 5.966 8.268 5.966 4.884 0 7.501-2.128 7.501-5.687 0-2.233-1.012-3.419-2.826-4.152-1.326-0.5233-3.175-0.9071-5.128-1.465-1.849-0.5233-2.791-0.942-2.791-1.954s0.9768-1.43 2.686-1.43c2.058 0 2.965 0.5931 3.21 2.268z"/>
   <path d="m328 179c0 2.128-0.8373 3.349-2.651 3.349-1.849 0-2.617-1.256-2.617-3.419v-7.047h9.489v-3.21h-9.489v-4.64h-4.466v15.35c0 3.698 1.989 6.908 7.012 6.908 4.849 0 6.942-3.244 6.942-6.873v-4.884h-4.221z"/>
   <path d="m350.6 182.6c-2.163 0-3.838-2.023-3.838-4.919 0-3.733 1.291-5.582 3.803-5.582 2.651 0 3.907 1.779 3.907 5.303 0 3.07-1.605 5.198-3.872 5.198zm-3.768 3.244 0.0349-2.093c1.081 1.744 2.686 2.547 4.78 2.547 4.326 0 7.431-3.419 7.431-9.21 0-5.198-2.617-8.861-7.047-8.861-2.128 0-3.803 0.8722-5.093 2.686v-8.512h-4.466v23.44z"/>
   <path d="m369.2 182.5c-2.756 0-4.152-1.744-4.152-5.233s1.395-5.198 4.152-5.198 4.152 1.709 4.152 5.198-1.395 5.233-4.152 5.233zm0 3.803c5.338 0 8.722-3.593 8.722-9.036 0-5.477-3.349-9.036-8.722-9.036-5.442 0-8.826 3.593-8.826 9.036 0 5.338 3.279 9.036 8.826 9.036z"/>
   <path d="m395.1 185.8v-11.9c0-3.733-2.407-5.721-5.687-5.721-2.756 0-4.5 1.047-5.547 2.965v-2.512h-4.326v17.16h4.535v-9.838c0-2.617 1.151-3.942 3.524-3.942 2.163 0 2.93 0.7326 2.93 3.384v10.4z"/>
  </g>
  <path d="m76.87 174h37.31v7.346h-37.25z"/>
  <path d="m409.2 173.8h47.53v7.346h-47.46z"/>
 </g>
</svg>
