<svg width="37" height="37" version="1.1" viewBox="0 0 37 37" xmlns="http://www.w3.org/2000/svg">
 <defs>
  <filter id="filter4446" x="-1.372e-6" y="-9.409e-7" width="1" height="1" color-interpolation-filters="sRGB">
   <feGaussianBlur stdDeviation="3.6478099e-05"/>
  </filter>
  <filter id="filter2979-8" x="-.06866" y="-.07298" width="1.137" height="1.146" color-interpolation-filters="sRGB">
   <feGaussianBlur stdDeviation="1.6330562"/>
  </filter>
  <filter id="filter2553-68" x="-.01862" y="-.0198" width="1.037" height="1.04" color-interpolation-filters="sRGB">
   <feGaussianBlur stdDeviation="0.4429906"/>
  </filter>
  <filter id="filter17568" x="-.09686" y="-.06566" width="1.194" height="1.131" color-interpolation-filters="sRGB">
   <feGaussianBlur stdDeviation="0.065452572"/>
  </filter>
  <filter id="filter17778" x="-.1594" y="-.1078" width="1.319" height="1.215" color-interpolation-filters="sRGB">
   <feGaussianBlur stdDeviation="0.24125627"/>
  </filter>
 </defs>
 <text x="2.8827183" y="21.844383" fill="#000000" font-family="sans-serif" font-size="40px" letter-spacing="0px" word-spacing="0px" style="line-height:1.25" xml:space="preserve"><tspan x="2.8827183" y="57.235004"/></text>
 <g transform="matrix(.5956 0 0 .5956 1.329 -1.959)">
  <g transform="translate(.4592 .4592)">
   <g transform="translate(62.41 -7.355)">
    <g transform="translate(7.528 -2.557)">
     <g transform="matrix(1.012 0 0 .694 -30.91 -7.642)">
      <rect x="-57.39" y="16.07" width="90.61" height="128.5" ry="0" opacity="0" stroke-width=".06811" style="paint-order:markers fill stroke"/>
      <g transform="matrix(.962 0 0 .962 -.1207 2.974)" filter="url(#filter4446)">
       <path d="m-26.61 27.44h31.57c8.928 0 16.12 7.188 16.12 16.12v60.81c0 8.928-7.188 16.12-16.12 16.12h-31.57c-8.928 0-16.12-7.188-16.12-16.12v-60.81c0-8.928 7.188-16.12 16.12-16.12z" fill="#191919"/>
       <path d="m-26.61 27.44c49.58 0.1341 47.4-2.304 47.69 76.93 0 8.928-7.188 16.12-16.12 16.12h-31.57c-8.928 0-16.12-7.188-16.12-16.12v-60.81c0-8.928 7.188-16.12 16.12-16.12z" fill="#161616"/>
       <path d="m-26.61 27.44c47.33 0.1341 47.52-0.05586 47.69 76.93 0 8.928-7.188 16.12-16.12 16.12h-31.57c-8.928 0-16.12-7.188-16.12-16.12v-60.81c0-8.928 7.188-16.12 16.12-16.12z" fill="#222"/>
       <g transform="translate(218.1 -42.85)" stroke-width=".1077">
        <g transform="matrix(.9801 0 0 .9801 -124.2 -47.85)">
         <path d="m-78.15 137.4-0.02673 1.587c-2.506 0.104-4.013 2.055-4.976 5.241-2.23 7.517-9.212 31.21-13.85 46.64h-1.213l-7.304-25.11c-2.898 8.271-6.091 16.91-8.847 25.11-0.0268 0.039-1.338 0-1.338-0.0391-4.183-14.27-8.57-28.43-12.76-42.74-1.017-3.472-4.406-9.104-6.742-9.065 0-0.4032-0.0268-1.3-0.0268-1.847h14.44v1.808c-1.712 0.1431-4.709 1.73-3.862 4.448 1.953 6.464 9.239 31.25 11.2 37.53 1.338-3.863 5.155-14.2 6.715-18.57-1.24-3.68-5.226-17.41-6.492-20.81-0.8651-2.315-3.219-2.523-4.976-2.562v-1.808l12.71 0.039v1.704c-1.73 0.078-3.398 1.014-2.622 3.394 1.686 5.202 2.729 8.857 4.29 13.62 0.4994-1.405 3.095-9.026 4.29-13.11 0.7937-2.679-0.3478-3.72-3.442-3.824 0.0268-0.4682 0-1.34 0.0268-1.769 3.96-0.039 9.908-0.039 10.98-0.078v1.769c-2.007 0.1041-4.085 1.665-5.181 4.123l-5.28 15.97c0.5708 2.094 5.645 18.57 6.171 20.38l10.92-36.75c-0.767-3.004-3.246-3.654-4.209-3.68v-1.808l11.4 0.1431z" fill="#12e6ee" fill-opacity=".8" filter="url(#filter2979-8)" style="mix-blend-mode:normal"/>
         <path d="m-78.15 137.4-0.02673 1.587c-2.506 0.104-4.013 2.055-4.976 5.241-2.23 7.517-9.212 31.21-13.85 46.64h-1.213l-7.304-25.11c-2.898 8.271-6.091 16.91-8.847 25.11-0.0268 0.039-1.338 0-1.338-0.0391-4.183-14.27-8.57-28.43-12.76-42.74-1.017-3.472-4.406-9.104-6.742-9.065 0-0.4032-0.0268-1.3-0.0268-1.847h14.44v1.808c-1.712 0.1431-4.709 1.73-3.862 4.448 1.953 6.464 9.239 31.25 11.2 37.53 1.338-3.863 5.155-14.2 6.715-18.57-1.24-3.68-5.226-17.41-6.492-20.81-0.8651-2.315-3.219-2.523-4.976-2.562v-1.808l12.71 0.039v1.704c-1.73 0.078-3.398 1.014-2.622 3.394 1.686 5.202 2.729 8.857 4.29 13.62 0.4994-1.405 3.095-9.026 4.29-13.11 0.7937-2.679-0.3478-3.72-3.442-3.824 0.0268-0.4682 0-1.34 0.0268-1.769 3.96-0.039 9.908-0.039 10.98-0.078v1.769c-2.007 0.1041-4.085 1.665-5.181 4.123l-5.279 15.97c0.5708 2.094 5.645 18.57 6.171 20.38l10.92-36.75c-0.767-3.004-3.246-3.654-4.209-3.68v-1.808l11.4 0.1431z" fill="#fff" filter="url(#filter2553-68)" opacity=".65"/>
         <path d="m-78.15 137.4-0.02672 1.587c-2.506 0.104-4.013 2.055-4.976 5.241-2.23 7.517-9.212 31.21-13.85 46.64h-1.213l-7.304-25.11c-2.898 8.271-6.091 16.91-8.847 25.11-0.0268 0.039-1.338 0-1.338-0.0391-4.183-14.27-8.57-28.43-12.76-42.74-1.017-3.472-4.406-9.104-6.742-9.065 0-0.4032-0.0268-1.3-0.0268-1.847h14.44v1.808c-1.712 0.1431-4.709 1.73-3.862 4.448 1.953 6.464 9.239 31.25 11.2 37.53 1.338-3.863 5.155-14.2 6.715-18.57-1.24-3.68-5.226-17.41-6.492-20.81-0.8651-2.315-3.219-2.523-4.976-2.562v-1.808l12.71 0.039v1.704c-1.73 0.078-3.398 1.014-2.622 3.394 1.686 5.202 2.729 8.857 4.29 13.62 0.4994-1.405 3.095-9.026 4.29-13.11 0.7937-2.679-0.3478-3.72-3.442-3.824 0.0268-0.4682 0-1.34 0.0268-1.769 3.96-0.039 9.908-0.039 10.98-0.078v1.769c-2.007 0.1041-4.085 1.665-5.181 4.123l-5.279 15.97c0.5708 2.094 5.645 18.57 6.171 20.38l10.92-36.75c-0.767-3.004-3.246-3.654-4.209-3.68v-1.808l11.4 0.1431z" fill="#cce7f8"/>
        </g>
       </g>
       <g transform="translate(-50.17 23.73)">
        <g transform="translate(48.36 -27.96)" stroke="#cce7f8">
         <path transform="matrix(1.725 0 0 2.515 -119.2 43.59)" d="m76.62 19.42a3.12 3.12 0 0 0-3.121 3.121 3.12 3.12 0 0 0 3.121 3.119 3.12 3.12 0 0 0 3.119-3.119 3.12 3.12 0 0 0-3.119-3.121zm-1.352 6.035-2.277 3.973z" fill="none" stroke="#cce7f8" stroke-linecap="round" stroke-linejoin="round"/>
        </g>
        <g transform="translate(107.5 -13.32)" stroke="#12e6ee" stroke-opacity=".8">
         <path transform="matrix(1.725 0 0 2.515 -209.3 26.12)" d="m94.6 20.55a3.12 3.12 0 0 0-3.121 3.119 3.12 3.12 0 0 0 3.121 3.121 3.12 3.12 0 0 0 3.119-3.121 3.12 3.12 0 0 0-3.119-3.119zm-1.352 6.033-2.277 3.973z" fill="none" filter="url(#filter17778)" stroke="#12e6ee" stroke-linecap="round" stroke-linejoin="round" stroke-opacity=".8"/>
        </g>
        <path transform="matrix(1.725 0 0 2.515 -42.29 14.86)" d="m60.08 19.73a3.12 3.12 0 0 0-3.121 3.121 3.12 3.12 0 0 0 3.121 3.119 3.12 3.12 0 0 0 3.119-3.119 3.12 3.12 0 0 0-3.119-3.121zm-1.352 6.035-2.277 3.973z" fill="none" filter="url(#filter17568)" opacity=".65" stroke="#fff" stroke-linecap="round" stroke-linejoin="round" style="mix-blend-mode:normal"/>
       </g>
      </g>
     </g>
    </g>
   </g>
  </g>
 </g>
</svg>
